<mxfile host="app.diagrams.net" agent="Mozilla/5.0 (Macintosh; Intel Mac OS X 10_15_7) AppleWebKit/537.36 (KHTML, like Gecko) Chrome/128.0.0.0 Safari/537.36" version="24.7.7">
  <diagram name="Page-1" id="0783ab3e-0a74-02c8-0abd-f7b4e66b4bec">
    <mxGraphModel dx="1444" dy="1140" grid="1" gridSize="10" guides="1" tooltips="1" connect="1" arrows="1" fold="1" page="1" pageScale="1" pageWidth="850" pageHeight="1100" background="none" math="0" shadow="0">
      <root>
        <mxCell id="0" />
        <mxCell id="1" parent="0" />
        <mxCell id="1c1d494c118603dd-1" value="Task 2 : Activity Diagram" style="swimlane;html=1;childLayout=stackLayout;startSize=20;rounded=0;shadow=0;comic=0;labelBackgroundColor=none;strokeWidth=1;fontFamily=Verdana;fontSize=12;align=center;" parent="1" vertex="1">
          <mxGeometry x="40" y="170" width="750" height="1560" as="geometry" />
        </mxCell>
        <mxCell id="uoBKEmt0VmtqSTgPxaB2-60" style="edgeStyle=orthogonalEdgeStyle;rounded=0;orthogonalLoop=1;jettySize=auto;html=1;entryX=1;entryY=0.5;entryDx=0;entryDy=0;exitX=0.5;exitY=1;exitDx=0;exitDy=0;" edge="1" parent="1c1d494c118603dd-1" source="uoBKEmt0VmtqSTgPxaB2-78">
          <mxGeometry relative="1" as="geometry">
            <mxPoint x="370" y="180" as="sourcePoint" />
            <mxPoint x="155" y="230" as="targetPoint" />
            <Array as="points">
              <mxPoint x="370" y="170" />
              <mxPoint x="370" y="230" />
            </Array>
          </mxGeometry>
        </mxCell>
        <mxCell id="uoBKEmt0VmtqSTgPxaB2-97" style="edgeStyle=orthogonalEdgeStyle;rounded=0;orthogonalLoop=1;jettySize=auto;html=1;entryX=1;entryY=0.5;entryDx=0;entryDy=0;" edge="1" parent="1c1d494c118603dd-1" source="uoBKEmt0VmtqSTgPxaB2-90" target="uoBKEmt0VmtqSTgPxaB2-93">
          <mxGeometry relative="1" as="geometry" />
        </mxCell>
        <mxCell id="uoBKEmt0VmtqSTgPxaB2-98" value="No" style="edgeLabel;html=1;align=center;verticalAlign=middle;resizable=0;points=[];" vertex="1" connectable="0" parent="uoBKEmt0VmtqSTgPxaB2-97">
          <mxGeometry x="0.3296" y="-1" relative="1" as="geometry">
            <mxPoint as="offset" />
          </mxGeometry>
        </mxCell>
        <mxCell id="uoBKEmt0VmtqSTgPxaB2-116" style="edgeStyle=orthogonalEdgeStyle;rounded=0;orthogonalLoop=1;jettySize=auto;html=1;entryX=0;entryY=0.5;entryDx=0;entryDy=0;" edge="1" parent="1c1d494c118603dd-1" source="uoBKEmt0VmtqSTgPxaB2-113" target="uoBKEmt0VmtqSTgPxaB2-115">
          <mxGeometry relative="1" as="geometry" />
        </mxCell>
        <mxCell id="uoBKEmt0VmtqSTgPxaB2-135" style="edgeStyle=orthogonalEdgeStyle;rounded=0;orthogonalLoop=1;jettySize=auto;html=1;entryX=0;entryY=0.5;entryDx=0;entryDy=0;" edge="1" parent="1c1d494c118603dd-1" source="uoBKEmt0VmtqSTgPxaB2-74" target="uoBKEmt0VmtqSTgPxaB2-75">
          <mxGeometry relative="1" as="geometry" />
        </mxCell>
        <mxCell id="uoBKEmt0VmtqSTgPxaB2-136" style="edgeStyle=orthogonalEdgeStyle;rounded=0;orthogonalLoop=1;jettySize=auto;html=1;entryX=0;entryY=0.5;entryDx=0;entryDy=0;" edge="1" parent="1c1d494c118603dd-1" source="uoBKEmt0VmtqSTgPxaB2-75" target="uoBKEmt0VmtqSTgPxaB2-81">
          <mxGeometry relative="1" as="geometry" />
        </mxCell>
        <mxCell id="uoBKEmt0VmtqSTgPxaB2-138" style="edgeStyle=orthogonalEdgeStyle;rounded=0;orthogonalLoop=1;jettySize=auto;html=1;entryX=1;entryY=0.5;entryDx=0;entryDy=0;" edge="1" parent="1c1d494c118603dd-1" source="uoBKEmt0VmtqSTgPxaB2-83" target="uoBKEmt0VmtqSTgPxaB2-68">
          <mxGeometry relative="1" as="geometry" />
        </mxCell>
        <mxCell id="1c1d494c118603dd-2" value="Client" style="swimlane;html=1;startSize=20;" parent="1c1d494c118603dd-1" vertex="1">
          <mxGeometry y="20" width="250" height="1540" as="geometry" />
        </mxCell>
        <mxCell id="60571a20871a0731-4" value="" style="ellipse;whiteSpace=wrap;html=1;rounded=0;shadow=0;comic=0;labelBackgroundColor=none;strokeWidth=1;fillColor=#000000;fontFamily=Verdana;fontSize=12;align=center;" parent="1c1d494c118603dd-2" vertex="1">
          <mxGeometry x="80" y="30" width="40" height="40" as="geometry" />
        </mxCell>
        <mxCell id="uoBKEmt0VmtqSTgPxaB2-58" style="edgeStyle=orthogonalEdgeStyle;rounded=0;orthogonalLoop=1;jettySize=auto;html=1;" edge="1" parent="1c1d494c118603dd-2" source="60571a20871a0731-8">
          <mxGeometry relative="1" as="geometry">
            <mxPoint x="310" y="115" as="targetPoint" />
          </mxGeometry>
        </mxCell>
        <mxCell id="60571a20871a0731-8" value="Open Website" style="rounded=1;whiteSpace=wrap;html=1;shadow=0;comic=0;labelBackgroundColor=none;strokeWidth=1;fontFamily=Verdana;fontSize=12;align=center;arcSize=50;" parent="1c1d494c118603dd-2" vertex="1">
          <mxGeometry x="50" y="100" width="100" height="30" as="geometry" />
        </mxCell>
        <mxCell id="1c1d494c118603dd-27" style="edgeStyle=orthogonalEdgeStyle;rounded=0;html=1;labelBackgroundColor=none;startArrow=none;startFill=0;startSize=5;endArrow=classicThin;endFill=1;endSize=5;jettySize=auto;orthogonalLoop=1;strokeWidth=1;fontFamily=Verdana;fontSize=12" parent="1c1d494c118603dd-2" source="60571a20871a0731-4" target="60571a20871a0731-8" edge="1">
          <mxGeometry relative="1" as="geometry" />
        </mxCell>
        <mxCell id="uoBKEmt0VmtqSTgPxaB2-61" style="edgeStyle=orthogonalEdgeStyle;rounded=0;orthogonalLoop=1;jettySize=auto;html=1;exitX=0.843;exitY=0.994;exitDx=0;exitDy=0;exitPerimeter=0;" edge="1" parent="1c1d494c118603dd-2">
          <mxGeometry relative="1" as="geometry">
            <mxPoint x="138.5150000000001" y="239.6400000000001" as="sourcePoint" />
            <mxPoint x="150" y="340" as="targetPoint" />
            <Array as="points">
              <mxPoint x="140" y="240" />
              <mxPoint x="140" y="285" />
              <mxPoint x="150" y="285" />
            </Array>
          </mxGeometry>
        </mxCell>
        <mxCell id="uoBKEmt0VmtqSTgPxaB2-72" value="Display error message ( username must be unique )" style="rounded=1;whiteSpace=wrap;html=1;" vertex="1" parent="1c1d494c118603dd-2">
          <mxGeometry x="40" y="480" width="120" height="60" as="geometry" />
        </mxCell>
        <mxCell id="uoBKEmt0VmtqSTgPxaB2-73" style="edgeStyle=orthogonalEdgeStyle;rounded=0;orthogonalLoop=1;jettySize=auto;html=1;exitX=0.25;exitY=0;exitDx=0;exitDy=0;entryX=0.081;entryY=1.013;entryDx=0;entryDy=0;entryPerimeter=0;" edge="1" parent="1c1d494c118603dd-2" source="uoBKEmt0VmtqSTgPxaB2-72">
          <mxGeometry relative="1" as="geometry">
            <mxPoint x="58.504999999999995" y="240.7800000000001" as="targetPoint" />
          </mxGeometry>
        </mxCell>
        <mxCell id="uoBKEmt0VmtqSTgPxaB2-74" value="&lt;span style=&quot;font-family: Verdana;&quot;&gt;Fill the Form, Enter ( FullName, Age, gender, academic, username, password, email, phone )&lt;/span&gt;" style="rounded=1;whiteSpace=wrap;html=1;" vertex="1" parent="1c1d494c118603dd-2">
          <mxGeometry x="80" y="340" width="130" height="110" as="geometry" />
        </mxCell>
        <mxCell id="uoBKEmt0VmtqSTgPxaB2-79" value="&lt;span style=&quot;font-family: Verdana;&quot;&gt;Display registration Form&lt;/span&gt;" style="rounded=1;whiteSpace=wrap;html=1;" vertex="1" parent="1c1d494c118603dd-2">
          <mxGeometry x="30" y="180" width="120" height="60" as="geometry" />
        </mxCell>
        <mxCell id="60571a20871a0731-5" value="" style="shape=mxgraph.bpmn.shape;html=1;verticalLabelPosition=bottom;labelBackgroundColor=#ffffff;verticalAlign=top;perimeter=ellipsePerimeter;outline=end;symbol=terminate;rounded=0;shadow=0;comic=0;strokeWidth=1;fontFamily=Verdana;fontSize=12;align=center;" parent="1c1d494c118603dd-2" vertex="1">
          <mxGeometry x="100" y="1470" width="40" height="40" as="geometry" />
        </mxCell>
        <mxCell id="uoBKEmt0VmtqSTgPxaB2-94" style="edgeStyle=orthogonalEdgeStyle;rounded=0;orthogonalLoop=1;jettySize=auto;html=1;entryX=0;entryY=0.5;entryDx=0;entryDy=0;exitX=0;exitY=0.5;exitDx=0;exitDy=0;" edge="1" parent="1c1d494c118603dd-2" source="uoBKEmt0VmtqSTgPxaB2-93" target="uoBKEmt0VmtqSTgPxaB2-79">
          <mxGeometry relative="1" as="geometry">
            <mxPoint x="30" y="370" as="targetPoint" />
            <Array as="points">
              <mxPoint x="40" y="740" />
              <mxPoint x="10" y="740" />
              <mxPoint x="10" y="210" />
            </Array>
          </mxGeometry>
        </mxCell>
        <mxCell id="uoBKEmt0VmtqSTgPxaB2-93" value="Display error message ( Password must be 12 characters )" style="rounded=1;whiteSpace=wrap;html=1;" vertex="1" parent="1c1d494c118603dd-2">
          <mxGeometry x="40" y="700" width="120" height="70" as="geometry" />
        </mxCell>
        <mxCell id="uoBKEmt0VmtqSTgPxaB2-109" style="edgeStyle=orthogonalEdgeStyle;rounded=0;orthogonalLoop=1;jettySize=auto;html=1;entryX=0;entryY=1;entryDx=0;entryDy=0;" edge="1" parent="1c1d494c118603dd-2" source="uoBKEmt0VmtqSTgPxaB2-107" target="uoBKEmt0VmtqSTgPxaB2-79">
          <mxGeometry relative="1" as="geometry">
            <mxPoint x="20" y="530" as="targetPoint" />
            <Array as="points">
              <mxPoint x="20" y="950" />
              <mxPoint x="20" y="240" />
            </Array>
          </mxGeometry>
        </mxCell>
        <mxCell id="uoBKEmt0VmtqSTgPxaB2-107" value="Display error message ( Email already exists )" style="rounded=1;whiteSpace=wrap;html=1;" vertex="1" parent="1c1d494c118603dd-2">
          <mxGeometry x="65" y="920" width="120" height="60" as="geometry" />
        </mxCell>
        <mxCell id="uoBKEmt0VmtqSTgPxaB2-125" style="edgeStyle=orthogonalEdgeStyle;rounded=0;orthogonalLoop=1;jettySize=auto;html=1;entryX=0;entryY=0.25;entryDx=0;entryDy=0;" edge="1" parent="1c1d494c118603dd-2" source="uoBKEmt0VmtqSTgPxaB2-124" target="uoBKEmt0VmtqSTgPxaB2-79">
          <mxGeometry relative="1" as="geometry">
            <mxPoint x="30" y="620" as="targetPoint" />
            <Array as="points">
              <mxPoint x="30" y="1160" />
            </Array>
          </mxGeometry>
        </mxCell>
        <mxCell id="uoBKEmt0VmtqSTgPxaB2-124" value="Display error message&amp;nbsp;" style="rounded=1;whiteSpace=wrap;html=1;" vertex="1" parent="1c1d494c118603dd-2">
          <mxGeometry x="65" y="1130" width="120" height="60" as="geometry" />
        </mxCell>
        <mxCell id="uoBKEmt0VmtqSTgPxaB2-133" style="edgeStyle=orthogonalEdgeStyle;rounded=0;orthogonalLoop=1;jettySize=auto;html=1;exitX=0.5;exitY=1;exitDx=0;exitDy=0;entryX=0.5;entryY=0;entryDx=0;entryDy=0;" edge="1" parent="1c1d494c118603dd-2" source="uoBKEmt0VmtqSTgPxaB2-129" target="uoBKEmt0VmtqSTgPxaB2-130">
          <mxGeometry relative="1" as="geometry" />
        </mxCell>
        <mxCell id="uoBKEmt0VmtqSTgPxaB2-129" value="Display Confirmation Dialogue" style="rounded=1;whiteSpace=wrap;html=1;" vertex="1" parent="1c1d494c118603dd-2">
          <mxGeometry x="60" y="1240" width="120" height="60" as="geometry" />
        </mxCell>
        <mxCell id="uoBKEmt0VmtqSTgPxaB2-134" style="edgeStyle=orthogonalEdgeStyle;rounded=0;orthogonalLoop=1;jettySize=auto;html=1;exitX=0.5;exitY=1;exitDx=0;exitDy=0;entryX=0.5;entryY=0;entryDx=0;entryDy=0;" edge="1" parent="1c1d494c118603dd-2" source="uoBKEmt0VmtqSTgPxaB2-130" target="60571a20871a0731-5">
          <mxGeometry relative="1" as="geometry" />
        </mxCell>
        <mxCell id="uoBKEmt0VmtqSTgPxaB2-130" value="Redirect to Home Page" style="rounded=1;whiteSpace=wrap;html=1;" vertex="1" parent="1c1d494c118603dd-2">
          <mxGeometry x="60" y="1350" width="120" height="60" as="geometry" />
        </mxCell>
        <mxCell id="uoBKEmt0VmtqSTgPxaB2-173" value="Display error message ( age must be between 0 - 150 )" style="rounded=1;whiteSpace=wrap;html=1;" vertex="1" parent="1c1d494c118603dd-2">
          <mxGeometry x="40" y="560" width="120" height="80" as="geometry" />
        </mxCell>
        <mxCell id="uoBKEmt0VmtqSTgPxaB2-175" style="edgeStyle=orthogonalEdgeStyle;rounded=0;orthogonalLoop=1;jettySize=auto;html=1;entryX=0.105;entryY=0.96;entryDx=0;entryDy=0;entryPerimeter=0;" edge="1" parent="1c1d494c118603dd-2" source="uoBKEmt0VmtqSTgPxaB2-173" target="uoBKEmt0VmtqSTgPxaB2-79">
          <mxGeometry relative="1" as="geometry">
            <Array as="points">
              <mxPoint x="10" y="590" />
              <mxPoint x="10" y="400" />
              <mxPoint x="43" y="400" />
            </Array>
          </mxGeometry>
        </mxCell>
        <mxCell id="uoBKEmt0VmtqSTgPxaB2-183" value="Display Loading page" style="rounded=1;whiteSpace=wrap;html=1;" vertex="1" parent="1c1d494c118603dd-2">
          <mxGeometry x="65" y="1050" width="120" height="60" as="geometry" />
        </mxCell>
        <mxCell id="1c1d494c118603dd-4" value="System" style="swimlane;html=1;startSize=20;" parent="1c1d494c118603dd-1" vertex="1">
          <mxGeometry x="250" y="20" width="250" height="1540" as="geometry" />
        </mxCell>
        <mxCell id="1c1d494c118603dd-37" style="edgeStyle=none;rounded=0;html=1;labelBackgroundColor=none;startArrow=none;startFill=0;startSize=5;endArrow=classicThin;endFill=1;endSize=5;jettySize=auto;orthogonalLoop=1;strokeWidth=1;fontFamily=Verdana;fontSize=12" parent="1c1d494c118603dd-4" target="1c1d494c118603dd-8" edge="1">
          <mxGeometry relative="1" as="geometry">
            <mxPoint x="70.5645161290322" y="298" as="sourcePoint" />
          </mxGeometry>
        </mxCell>
        <mxCell id="1c1d494c118603dd-44" style="edgeStyle=none;rounded=0;html=1;labelBackgroundColor=none;startArrow=none;startFill=0;startSize=5;endArrow=classicThin;endFill=1;endSize=5;jettySize=auto;orthogonalLoop=1;strokeWidth=1;fontFamily=Verdana;fontSize=12" parent="1c1d494c118603dd-4" target="1c1d494c118603dd-19" edge="1">
          <mxGeometry relative="1" as="geometry">
            <mxPoint x="120" y="700" as="sourcePoint" />
          </mxGeometry>
        </mxCell>
        <mxCell id="1c1d494c118603dd-49" style="edgeStyle=none;rounded=0;html=1;dashed=1;labelBackgroundColor=none;startArrow=none;startFill=0;startSize=5;endArrow=oval;endFill=0;endSize=5;jettySize=auto;orthogonalLoop=1;strokeWidth=1;fontFamily=Verdana;fontSize=12" parent="1c1d494c118603dd-4" source="1c1d494c118603dd-20" edge="1">
          <mxGeometry relative="1" as="geometry">
            <mxPoint x="85" y="281.8135593220338" as="targetPoint" />
          </mxGeometry>
        </mxCell>
        <mxCell id="1c1d494c118603dd-57" style="edgeStyle=none;rounded=0;html=1;dashed=1;labelBackgroundColor=none;startArrow=none;startFill=0;startSize=5;endArrow=oval;endFill=0;endSize=5;jettySize=auto;orthogonalLoop=1;strokeWidth=1;fontFamily=Verdana;fontSize=12" parent="1c1d494c118603dd-4" source="1c1d494c118603dd-25" edge="1">
          <mxGeometry relative="1" as="geometry">
            <mxPoint x="35" y="623.0281690140846" as="targetPoint" />
          </mxGeometry>
        </mxCell>
        <mxCell id="1c1d494c118603dd-58" style="edgeStyle=none;rounded=0;html=1;dashed=1;labelBackgroundColor=none;startArrow=none;startFill=0;startSize=5;endArrow=oval;endFill=0;endSize=5;jettySize=auto;orthogonalLoop=1;strokeWidth=1;fontFamily=Verdana;fontSize=12" parent="1c1d494c118603dd-4" target="1c1d494c118603dd-19" edge="1">
          <mxGeometry relative="1" as="geometry">
            <mxPoint x="169.60000000000014" y="785" as="sourcePoint" />
          </mxGeometry>
        </mxCell>
        <mxCell id="uoBKEmt0VmtqSTgPxaB2-146" value="No" style="edgeStyle=orthogonalEdgeStyle;rounded=0;orthogonalLoop=1;jettySize=auto;html=1;" edge="1" parent="1c1d494c118603dd-4" source="uoBKEmt0VmtqSTgPxaB2-68">
          <mxGeometry relative="1" as="geometry">
            <mxPoint x="120" y="440" as="targetPoint" />
          </mxGeometry>
        </mxCell>
        <mxCell id="uoBKEmt0VmtqSTgPxaB2-68" value="exists?" style="rhombus;whiteSpace=wrap;html=1;" vertex="1" parent="1c1d494c118603dd-4">
          <mxGeometry x="80" y="320" width="80" height="80" as="geometry" />
        </mxCell>
        <mxCell id="uoBKEmt0VmtqSTgPxaB2-75" value="&lt;span style=&quot;font-family: Verdana;&quot;&gt;validate username&lt;/span&gt;" style="rounded=1;whiteSpace=wrap;html=1;" vertex="1" parent="1c1d494c118603dd-4">
          <mxGeometry x="61.25" y="240" width="117.5" height="60" as="geometry" />
        </mxCell>
        <mxCell id="uoBKEmt0VmtqSTgPxaB2-78" value="&lt;span style=&quot;font-family: Verdana;&quot;&gt;Registraion Page View&lt;/span&gt;" style="rounded=1;whiteSpace=wrap;html=1;" vertex="1" parent="1c1d494c118603dd-4">
          <mxGeometry x="65" y="90" width="120" height="60" as="geometry" />
        </mxCell>
        <mxCell id="uoBKEmt0VmtqSTgPxaB2-180" style="edgeStyle=orthogonalEdgeStyle;rounded=0;orthogonalLoop=1;jettySize=auto;html=1;entryX=0.5;entryY=0;entryDx=0;entryDy=0;" edge="1" parent="1c1d494c118603dd-4" source="uoBKEmt0VmtqSTgPxaB2-86" target="uoBKEmt0VmtqSTgPxaB2-90">
          <mxGeometry relative="1" as="geometry" />
        </mxCell>
        <mxCell id="uoBKEmt0VmtqSTgPxaB2-86" value="&lt;span style=&quot;font-family: Verdana;&quot;&gt;Validate Password ( check password strength )&lt;/span&gt;" style="rounded=1;whiteSpace=wrap;html=1;" vertex="1" parent="1c1d494c118603dd-4">
          <mxGeometry x="61.25" y="640" width="117.5" height="60" as="geometry" />
        </mxCell>
        <mxCell id="uoBKEmt0VmtqSTgPxaB2-95" style="edgeStyle=orthogonalEdgeStyle;rounded=0;orthogonalLoop=1;jettySize=auto;html=1;exitX=0.5;exitY=1;exitDx=0;exitDy=0;" edge="1" parent="1c1d494c118603dd-4" source="uoBKEmt0VmtqSTgPxaB2-90">
          <mxGeometry relative="1" as="geometry">
            <mxPoint x="120" y="830" as="targetPoint" />
          </mxGeometry>
        </mxCell>
        <mxCell id="uoBKEmt0VmtqSTgPxaB2-96" value="Yes" style="edgeLabel;html=1;align=center;verticalAlign=middle;resizable=0;points=[];" vertex="1" connectable="0" parent="uoBKEmt0VmtqSTgPxaB2-95">
          <mxGeometry x="-0.0198" y="-1" relative="1" as="geometry">
            <mxPoint as="offset" />
          </mxGeometry>
        </mxCell>
        <mxCell id="uoBKEmt0VmtqSTgPxaB2-90" value="correct?" style="rhombus;whiteSpace=wrap;html=1;" vertex="1" parent="1c1d494c118603dd-4">
          <mxGeometry x="80" y="720" width="80" height="80" as="geometry" />
        </mxCell>
        <mxCell id="uoBKEmt0VmtqSTgPxaB2-101" style="edgeStyle=orthogonalEdgeStyle;rounded=0;orthogonalLoop=1;jettySize=auto;html=1;exitX=1;exitY=0.5;exitDx=0;exitDy=0;" edge="1" parent="1c1d494c118603dd-4" source="uoBKEmt0VmtqSTgPxaB2-99">
          <mxGeometry relative="1" as="geometry">
            <mxPoint x="310" y="860.6666666666667" as="targetPoint" />
          </mxGeometry>
        </mxCell>
        <mxCell id="uoBKEmt0VmtqSTgPxaB2-99" value="&lt;span style=&quot;font-family: Verdana;&quot;&gt;Validate email&lt;/span&gt;" style="rounded=1;whiteSpace=wrap;html=1;" vertex="1" parent="1c1d494c118603dd-4">
          <mxGeometry x="61.25" y="840" width="117.5" height="60" as="geometry" />
        </mxCell>
        <mxCell id="uoBKEmt0VmtqSTgPxaB2-108" style="edgeStyle=orthogonalEdgeStyle;rounded=0;orthogonalLoop=1;jettySize=auto;html=1;" edge="1" parent="1c1d494c118603dd-4" source="uoBKEmt0VmtqSTgPxaB2-106">
          <mxGeometry relative="1" as="geometry">
            <mxPoint x="-60" y="960" as="targetPoint" />
          </mxGeometry>
        </mxCell>
        <mxCell id="uoBKEmt0VmtqSTgPxaB2-110" value="Yes" style="edgeLabel;html=1;align=center;verticalAlign=middle;resizable=0;points=[];" vertex="1" connectable="0" parent="uoBKEmt0VmtqSTgPxaB2-108">
          <mxGeometry x="-0.2363" y="-3" relative="1" as="geometry">
            <mxPoint as="offset" />
          </mxGeometry>
        </mxCell>
        <mxCell id="uoBKEmt0VmtqSTgPxaB2-111" value="No" style="edgeStyle=orthogonalEdgeStyle;rounded=0;orthogonalLoop=1;jettySize=auto;html=1;exitX=0.5;exitY=1;exitDx=0;exitDy=0;" edge="1" parent="1c1d494c118603dd-4" source="uoBKEmt0VmtqSTgPxaB2-106">
          <mxGeometry relative="1" as="geometry">
            <mxPoint x="120.33333333333326" y="1050" as="targetPoint" />
          </mxGeometry>
        </mxCell>
        <mxCell id="uoBKEmt0VmtqSTgPxaB2-106" value="exists?" style="rhombus;whiteSpace=wrap;html=1;" vertex="1" parent="1c1d494c118603dd-4">
          <mxGeometry x="80" y="920" width="80" height="80" as="geometry" />
        </mxCell>
        <mxCell id="uoBKEmt0VmtqSTgPxaB2-182" style="edgeStyle=orthogonalEdgeStyle;rounded=0;orthogonalLoop=1;jettySize=auto;html=1;" edge="1" parent="1c1d494c118603dd-4" source="uoBKEmt0VmtqSTgPxaB2-113">
          <mxGeometry relative="1" as="geometry">
            <mxPoint x="-59.999999999999886" y="1080" as="targetPoint" />
          </mxGeometry>
        </mxCell>
        <mxCell id="uoBKEmt0VmtqSTgPxaB2-113" value="&lt;span style=&quot;font-family: Verdana;&quot;&gt;Show Loading Page&lt;/span&gt;" style="rounded=1;whiteSpace=wrap;html=1;" vertex="1" parent="1c1d494c118603dd-4">
          <mxGeometry x="61.25" y="1050" width="117.5" height="60" as="geometry" />
        </mxCell>
        <mxCell id="uoBKEmt0VmtqSTgPxaB2-122" style="edgeStyle=orthogonalEdgeStyle;rounded=0;orthogonalLoop=1;jettySize=auto;html=1;exitX=0;exitY=0.5;exitDx=0;exitDy=0;" edge="1" parent="1c1d494c118603dd-4" source="uoBKEmt0VmtqSTgPxaB2-121">
          <mxGeometry relative="1" as="geometry">
            <mxPoint x="-60" y="1160" as="targetPoint" />
          </mxGeometry>
        </mxCell>
        <mxCell id="uoBKEmt0VmtqSTgPxaB2-123" value="No" style="edgeLabel;html=1;align=center;verticalAlign=middle;resizable=0;points=[];" vertex="1" connectable="0" parent="uoBKEmt0VmtqSTgPxaB2-122">
          <mxGeometry x="-0.1698" y="2" relative="1" as="geometry">
            <mxPoint x="1" as="offset" />
          </mxGeometry>
        </mxCell>
        <mxCell id="uoBKEmt0VmtqSTgPxaB2-126" value="Yes" style="edgeStyle=orthogonalEdgeStyle;rounded=0;orthogonalLoop=1;jettySize=auto;html=1;" edge="1" parent="1c1d494c118603dd-4" source="uoBKEmt0VmtqSTgPxaB2-121">
          <mxGeometry relative="1" as="geometry">
            <mxPoint x="120" y="1240" as="targetPoint" />
          </mxGeometry>
        </mxCell>
        <mxCell id="uoBKEmt0VmtqSTgPxaB2-121" value="Success?" style="rhombus;whiteSpace=wrap;html=1;" vertex="1" parent="1c1d494c118603dd-4">
          <mxGeometry x="80" y="1120" width="80" height="80" as="geometry" />
        </mxCell>
        <mxCell id="uoBKEmt0VmtqSTgPxaB2-128" style="edgeStyle=orthogonalEdgeStyle;rounded=0;orthogonalLoop=1;jettySize=auto;html=1;" edge="1" parent="1c1d494c118603dd-4" source="uoBKEmt0VmtqSTgPxaB2-127">
          <mxGeometry relative="1" as="geometry">
            <mxPoint x="-70" y="1270" as="targetPoint" />
          </mxGeometry>
        </mxCell>
        <mxCell id="uoBKEmt0VmtqSTgPxaB2-127" value="&lt;span style=&quot;font-family: Verdana;&quot;&gt;Show Account Creation Confirmation&lt;/span&gt;" style="rounded=1;whiteSpace=wrap;html=1;" vertex="1" parent="1c1d494c118603dd-4">
          <mxGeometry x="61.25" y="1240" width="117.5" height="60" as="geometry" />
        </mxCell>
        <mxCell id="uoBKEmt0VmtqSTgPxaB2-179" style="edgeStyle=orthogonalEdgeStyle;rounded=0;orthogonalLoop=1;jettySize=auto;html=1;entryX=0.5;entryY=0;entryDx=0;entryDy=0;" edge="1" parent="1c1d494c118603dd-4" source="uoBKEmt0VmtqSTgPxaB2-141" target="uoBKEmt0VmtqSTgPxaB2-169">
          <mxGeometry relative="1" as="geometry" />
        </mxCell>
        <mxCell id="uoBKEmt0VmtqSTgPxaB2-141" value="&lt;span style=&quot;font-family: Verdana;&quot;&gt;Validate age.&amp;nbsp;&lt;br&gt;&lt;/span&gt;&lt;span style=&quot;font-family: Verdana;&quot;&gt;Check if ( age &amp;lt; 0 &amp;amp;&amp;amp; age &amp;gt; 150 )&lt;/span&gt;&lt;span style=&quot;font-family: Verdana;&quot;&gt;&lt;br&gt;&lt;/span&gt;" style="rounded=1;whiteSpace=wrap;html=1;" vertex="1" parent="1c1d494c118603dd-4">
          <mxGeometry x="61.25" y="440" width="117.5" height="60" as="geometry" />
        </mxCell>
        <mxCell id="uoBKEmt0VmtqSTgPxaB2-171" style="edgeStyle=orthogonalEdgeStyle;rounded=0;orthogonalLoop=1;jettySize=auto;html=1;exitX=0.5;exitY=1;exitDx=0;exitDy=0;" edge="1" parent="1c1d494c118603dd-4" source="uoBKEmt0VmtqSTgPxaB2-169" target="uoBKEmt0VmtqSTgPxaB2-86">
          <mxGeometry relative="1" as="geometry" />
        </mxCell>
        <mxCell id="uoBKEmt0VmtqSTgPxaB2-176" value="Yes" style="edgeLabel;html=1;align=center;verticalAlign=middle;resizable=0;points=[];" vertex="1" connectable="0" parent="uoBKEmt0VmtqSTgPxaB2-171">
          <mxGeometry x="-0.4653" y="-4" relative="1" as="geometry">
            <mxPoint x="-1" y="2" as="offset" />
          </mxGeometry>
        </mxCell>
        <mxCell id="uoBKEmt0VmtqSTgPxaB2-169" value="correct?" style="rhombus;whiteSpace=wrap;html=1;" vertex="1" parent="1c1d494c118603dd-4">
          <mxGeometry x="80" y="520" width="80" height="80" as="geometry" />
        </mxCell>
        <mxCell id="uoBKEmt0VmtqSTgPxaB2-45" value="Database" style="swimlane;html=1;startSize=20;" vertex="1" parent="1c1d494c118603dd-1">
          <mxGeometry x="500" y="20" width="250" height="1540" as="geometry" />
        </mxCell>
        <mxCell id="uoBKEmt0VmtqSTgPxaB2-46" style="edgeStyle=none;rounded=0;html=1;labelBackgroundColor=none;startArrow=none;startFill=0;startSize=5;endArrow=classicThin;endFill=1;endSize=5;jettySize=auto;orthogonalLoop=1;strokeWidth=1;fontFamily=Verdana;fontSize=12" edge="1" parent="uoBKEmt0VmtqSTgPxaB2-45">
          <mxGeometry relative="1" as="geometry">
            <mxPoint x="70.5645161290322" y="298" as="sourcePoint" />
          </mxGeometry>
        </mxCell>
        <mxCell id="uoBKEmt0VmtqSTgPxaB2-47" style="edgeStyle=none;rounded=0;html=1;labelBackgroundColor=none;startArrow=none;startFill=0;startSize=5;endArrow=classicThin;endFill=1;endSize=5;jettySize=auto;orthogonalLoop=1;strokeWidth=1;fontFamily=Verdana;fontSize=12" edge="1" parent="uoBKEmt0VmtqSTgPxaB2-45">
          <mxGeometry relative="1" as="geometry">
            <mxPoint x="120" y="700" as="sourcePoint" />
          </mxGeometry>
        </mxCell>
        <mxCell id="uoBKEmt0VmtqSTgPxaB2-50" style="edgeStyle=none;rounded=0;html=1;dashed=1;labelBackgroundColor=none;startArrow=none;startFill=0;startSize=5;endArrow=oval;endFill=0;endSize=5;jettySize=auto;orthogonalLoop=1;strokeWidth=1;fontFamily=Verdana;fontSize=12" edge="1" parent="uoBKEmt0VmtqSTgPxaB2-45">
          <mxGeometry relative="1" as="geometry">
            <mxPoint x="85" y="281.8135593220338" as="targetPoint" />
          </mxGeometry>
        </mxCell>
        <mxCell id="uoBKEmt0VmtqSTgPxaB2-51" style="edgeStyle=none;rounded=0;html=1;dashed=1;labelBackgroundColor=none;startArrow=none;startFill=0;startSize=5;endArrow=oval;endFill=0;endSize=5;jettySize=auto;orthogonalLoop=1;strokeWidth=1;fontFamily=Verdana;fontSize=12" edge="1" parent="uoBKEmt0VmtqSTgPxaB2-45">
          <mxGeometry relative="1" as="geometry">
            <mxPoint x="35" y="623.0281690140846" as="targetPoint" />
          </mxGeometry>
        </mxCell>
        <mxCell id="uoBKEmt0VmtqSTgPxaB2-52" style="edgeStyle=none;rounded=0;html=1;dashed=1;labelBackgroundColor=none;startArrow=none;startFill=0;startSize=5;endArrow=oval;endFill=0;endSize=5;jettySize=auto;orthogonalLoop=1;strokeWidth=1;fontFamily=Verdana;fontSize=12" edge="1" parent="uoBKEmt0VmtqSTgPxaB2-45">
          <mxGeometry relative="1" as="geometry">
            <mxPoint x="169.60000000000014" y="785" as="sourcePoint" />
          </mxGeometry>
        </mxCell>
        <mxCell id="uoBKEmt0VmtqSTgPxaB2-137" style="edgeStyle=orthogonalEdgeStyle;rounded=0;orthogonalLoop=1;jettySize=auto;html=1;entryX=0.5;entryY=0;entryDx=0;entryDy=0;" edge="1" parent="uoBKEmt0VmtqSTgPxaB2-45" source="uoBKEmt0VmtqSTgPxaB2-81" target="uoBKEmt0VmtqSTgPxaB2-83">
          <mxGeometry relative="1" as="geometry" />
        </mxCell>
        <mxCell id="uoBKEmt0VmtqSTgPxaB2-81" value="&lt;span style=&quot;font-family: Verdana;&quot;&gt;Check if username exists&lt;/span&gt;" style="rounded=1;whiteSpace=wrap;html=1;" vertex="1" parent="uoBKEmt0VmtqSTgPxaB2-45">
          <mxGeometry x="61.25" y="240" width="117.5" height="60" as="geometry" />
        </mxCell>
        <mxCell id="uoBKEmt0VmtqSTgPxaB2-83" value="&lt;span style=&quot;font-family: Verdana;&quot;&gt;return result&lt;/span&gt;" style="rounded=1;whiteSpace=wrap;html=1;" vertex="1" parent="uoBKEmt0VmtqSTgPxaB2-45">
          <mxGeometry x="61.25" y="330" width="117.5" height="60" as="geometry" />
        </mxCell>
        <mxCell id="uoBKEmt0VmtqSTgPxaB2-104" style="edgeStyle=orthogonalEdgeStyle;rounded=0;orthogonalLoop=1;jettySize=auto;html=1;exitX=0.5;exitY=1;exitDx=0;exitDy=0;" edge="1" parent="uoBKEmt0VmtqSTgPxaB2-45" source="uoBKEmt0VmtqSTgPxaB2-102" target="uoBKEmt0VmtqSTgPxaB2-103">
          <mxGeometry relative="1" as="geometry" />
        </mxCell>
        <mxCell id="uoBKEmt0VmtqSTgPxaB2-102" value="&lt;span style=&quot;font-family: Verdana;&quot;&gt;Check if email exists&lt;/span&gt;" style="rounded=1;whiteSpace=wrap;html=1;" vertex="1" parent="uoBKEmt0VmtqSTgPxaB2-45">
          <mxGeometry x="61.25" y="830" width="117.5" height="60" as="geometry" />
        </mxCell>
        <mxCell id="uoBKEmt0VmtqSTgPxaB2-105" style="edgeStyle=orthogonalEdgeStyle;rounded=0;orthogonalLoop=1;jettySize=auto;html=1;exitX=0;exitY=0.5;exitDx=0;exitDy=0;" edge="1" parent="uoBKEmt0VmtqSTgPxaB2-45" source="uoBKEmt0VmtqSTgPxaB2-103">
          <mxGeometry relative="1" as="geometry">
            <mxPoint x="-90" y="960.6666666666667" as="targetPoint" />
          </mxGeometry>
        </mxCell>
        <mxCell id="uoBKEmt0VmtqSTgPxaB2-103" value="&lt;span style=&quot;font-family: Verdana;&quot;&gt;return result&lt;/span&gt;" style="rounded=1;whiteSpace=wrap;html=1;" vertex="1" parent="uoBKEmt0VmtqSTgPxaB2-45">
          <mxGeometry x="66.25" y="930" width="117.5" height="60" as="geometry" />
        </mxCell>
        <mxCell id="uoBKEmt0VmtqSTgPxaB2-119" style="edgeStyle=orthogonalEdgeStyle;rounded=0;orthogonalLoop=1;jettySize=auto;html=1;exitX=0.5;exitY=1;exitDx=0;exitDy=0;" edge="1" parent="uoBKEmt0VmtqSTgPxaB2-45" source="uoBKEmt0VmtqSTgPxaB2-115" target="uoBKEmt0VmtqSTgPxaB2-118">
          <mxGeometry relative="1" as="geometry" />
        </mxCell>
        <mxCell id="uoBKEmt0VmtqSTgPxaB2-115" value="&lt;span style=&quot;font-family: Verdana;&quot;&gt;Insert Data into Database&lt;/span&gt;" style="rounded=1;whiteSpace=wrap;html=1;" vertex="1" parent="uoBKEmt0VmtqSTgPxaB2-45">
          <mxGeometry x="61.25" y="1050" width="117.5" height="60" as="geometry" />
        </mxCell>
        <mxCell id="uoBKEmt0VmtqSTgPxaB2-120" style="edgeStyle=orthogonalEdgeStyle;rounded=0;orthogonalLoop=1;jettySize=auto;html=1;" edge="1" parent="uoBKEmt0VmtqSTgPxaB2-45" source="uoBKEmt0VmtqSTgPxaB2-118">
          <mxGeometry relative="1" as="geometry">
            <mxPoint x="-90" y="1160" as="targetPoint" />
          </mxGeometry>
        </mxCell>
        <mxCell id="uoBKEmt0VmtqSTgPxaB2-118" value="&lt;span style=&quot;font-family: Verdana;&quot;&gt;return result&lt;/span&gt;" style="rounded=1;whiteSpace=wrap;html=1;" vertex="1" parent="uoBKEmt0VmtqSTgPxaB2-45">
          <mxGeometry x="61.25" y="1130" width="117.5" height="60" as="geometry" />
        </mxCell>
        <mxCell id="uoBKEmt0VmtqSTgPxaB2-172" style="edgeStyle=orthogonalEdgeStyle;rounded=0;orthogonalLoop=1;jettySize=auto;html=1;entryX=1;entryY=0.5;entryDx=0;entryDy=0;" edge="1" parent="1c1d494c118603dd-1" source="uoBKEmt0VmtqSTgPxaB2-169" target="uoBKEmt0VmtqSTgPxaB2-173">
          <mxGeometry relative="1" as="geometry">
            <mxPoint x="170" y="610" as="targetPoint" />
          </mxGeometry>
        </mxCell>
        <mxCell id="uoBKEmt0VmtqSTgPxaB2-174" value="No" style="edgeLabel;html=1;align=center;verticalAlign=middle;resizable=0;points=[];" vertex="1" connectable="0" parent="uoBKEmt0VmtqSTgPxaB2-172">
          <mxGeometry x="0.3022" y="-2" relative="1" as="geometry">
            <mxPoint as="offset" />
          </mxGeometry>
        </mxCell>
        <mxCell id="uoBKEmt0VmtqSTgPxaB2-69" style="edgeStyle=orthogonalEdgeStyle;rounded=0;orthogonalLoop=1;jettySize=auto;html=1;entryX=1;entryY=0.5;entryDx=0;entryDy=0;" edge="1" parent="1c1d494c118603dd-1" source="uoBKEmt0VmtqSTgPxaB2-68" target="uoBKEmt0VmtqSTgPxaB2-72">
          <mxGeometry relative="1" as="geometry">
            <mxPoint x="150" y="520" as="targetPoint" />
            <Array as="points">
              <mxPoint x="280" y="380" />
              <mxPoint x="280" y="490" />
              <mxPoint x="200" y="490" />
              <mxPoint x="200" y="520" />
              <mxPoint x="180" y="520" />
              <mxPoint x="180" y="530" />
            </Array>
          </mxGeometry>
        </mxCell>
        <mxCell id="uoBKEmt0VmtqSTgPxaB2-70" value="Yes" style="edgeLabel;html=1;align=center;verticalAlign=middle;resizable=0;points=[];" vertex="1" connectable="0" parent="uoBKEmt0VmtqSTgPxaB2-69">
          <mxGeometry x="0.2524" y="1" relative="1" as="geometry">
            <mxPoint as="offset" />
          </mxGeometry>
        </mxCell>
      </root>
    </mxGraphModel>
  </diagram>
</mxfile>
